<svg width="103" height="71" viewBox="0 0 103 71" fill="none" xmlns="http://www.w3.org/2000/svg">
<path d="M69.3333 48C64.8889 48 61.1111 46.4444 58 43.3333C54.8889 40.2222 53.3333 36.4444 53.3333 32C53.3333 27.5556 54.8889 23.7778 58 20.6667C61.1111 17.5556 64.8889 16 69.3333 16C73.7778 16 77.5555 17.5556 80.6667 20.6667C83.7778 23.7778 85.3333 27.5556 85.3333 32C85.3333 36.4444 83.7778 40.2222 80.6667 43.3333C77.5555 46.4444 73.7778 48 69.3333 48ZM32 64C29.0667 64 26.5556 62.9556 24.4667 60.8667C22.3778 58.7778 21.3333 56.2667 21.3333 53.3333V10.6667C21.3333 7.73333 22.3778 5.22222 24.4667 3.13333C26.5556 1.04444 29.0667 0 32 0H106.667C109.6 0 112.111 1.04444 114.2 3.13333C116.289 5.22222 117.333 7.73333 117.333 10.6667V53.3333C117.333 56.2667 116.289 58.7778 114.2 60.8667C112.111 62.9556 109.6 64 106.667 64H32ZM42.6667 53.3333H96C96 50.4 97.0444 47.8889 99.1333 45.8C101.222 43.7111 103.733 42.6667 106.667 42.6667V21.3333C103.733 21.3333 101.222 20.2889 99.1333 18.2C97.0444 16.1111 96 13.6 96 10.6667H42.6667C42.6667 13.6 41.6222 16.1111 39.5333 18.2C37.4444 20.2889 34.9333 21.3333 32 21.3333V42.6667C34.9333 42.6667 37.4444 43.7111 39.5333 45.8C41.6222 47.8889 42.6667 50.4 42.6667 53.3333ZM101.333 85.3333H10.6667C7.73333 85.3333 5.22222 84.2889 3.13333 82.2C1.04444 80.1111 0 77.6 0 74.6667V16H10.6667V74.6667H101.333V85.3333ZM32 53.3333V10.6667V53.3333Z" fill="#006947" fill-opacity="0.05"/>
</svg>
