<svg width="24" height="24" viewBox="0 0 24 24" fill="none" xmlns="http://www.w3.org/2000/svg">
<path d="M22.375 3.7848C20.8791 2.93331 19.2336 2.37691 17.528 2.1458C17.2698 1.64888 16.9104 1.2115 16.473 0.861799C16.0019 0.487228 15.4518 0.22477 14.8643 0.0943079C14.2768 -0.0361541 13.6673 -0.0311986 13.082 0.108799C11.831 0.424472 10.6176 0.874069 9.46298 1.4498C8.6433 1.06008 7.72775 0.917879 6.82848 1.04061C5.9292 1.16335 5.08524 1.54568 4.39997 2.1408C4.03297 2.4558 3.66397 2.7848 3.29997 3.1238C2.91797 3.4828 2.52897 3.8908 2.14097 4.3338C1.65482 4.88961 1.30786 5.55311 1.12876 6.2695C0.949668 6.98588 0.94357 7.73459 1.11097 8.4538C1.18826 8.7933 1.30261 9.12328 1.45197 9.4378C0.872337 10.6006 0.419079 11.8223 0.0999742 13.0818C-0.0406235 13.6671 -0.0458804 14.2767 0.0846038 14.8643C0.215088 15.4519 0.477875 16.002 0.852974 16.4728C1.20631 16.9148 1.6494 17.2767 2.15297 17.5348C2.38469 19.238 2.94072 20.881 3.79097 22.3748C4.12086 22.9674 4.63223 23.4385 5.24985 23.7188C5.86748 23.9991 6.55875 24.0737 7.22198 23.9318C7.90803 23.7959 8.53217 23.443 9.00218 22.9251C9.47218 22.4071 9.76311 21.7518 9.83197 21.0558C10.0186 19.7684 10.357 18.5077 10.84 17.2998C10.84 17.2998 11.385 16.9638 11.634 16.7608C12.2335 16.2579 12.6591 15.5787 12.85 14.8198C13.3123 14.6667 13.7327 14.4083 14.078 14.0648C14.4143 13.7225 14.6686 13.3085 14.822 12.8538C15.5782 12.6619 16.2549 12.2368 16.756 11.6388C16.956 11.3898 17.296 10.8438 17.296 10.8438C18.5012 10.3478 19.7647 10.0074 21.056 9.8308C21.752 9.76194 22.4073 9.471 22.9252 9.001C23.4431 8.531 23.7961 7.90685 23.932 7.2208C24.0762 6.5568 24.0027 5.86399 23.7222 5.24508C23.4418 4.62617 22.9693 4.11411 22.375 3.7848ZM7.83898 20.8328C7.8149 21.1086 7.70165 21.3691 7.51634 21.5748C7.33104 21.7804 7.08378 21.9202 6.81198 21.9728C6.56186 22.0297 6.29997 22.0028 6.06668 21.8962C5.83338 21.7896 5.64163 21.6092 5.52097 21.3828C4.91957 20.3295 4.48858 19.1878 4.24397 17.9998H8.14398C8.25298 17.9998 8.35898 17.9778 8.46698 17.9718C8.18097 18.8548 7.83898 20.8288 7.83898 20.8328ZM10.369 15.2068C9.74111 15.7187 8.95608 15.9988 8.14598 15.9998H3.99997C3.69578 16.0005 3.39545 15.9317 3.12183 15.7988C2.84821 15.6659 2.60851 15.4723 2.42097 15.2328C2.23391 14.9984 2.10274 14.7245 2.03741 14.4318C1.97209 14.1392 1.97433 13.8355 2.04397 13.5438C2.24418 12.7365 2.51178 11.9474 2.84397 11.1848C3.15269 11.4264 3.4907 11.628 3.84997 11.7848L10.527 14.7088C10.589 14.7378 10.655 14.7488 10.718 14.7728C10.6285 14.9371 10.5103 15.0841 10.369 15.2068ZM12.654 12.6548C12.4869 12.8242 12.2714 12.9377 12.0372 12.9796C11.8029 13.0215 11.5614 12.9898 11.346 12.8888L4.65297 9.9578C4.25391 9.78296 3.90211 9.5158 3.62654 9.17833C3.35097 8.84087 3.15952 8.44276 3.06797 8.0168C2.97092 7.6039 2.97344 7.17384 3.07533 6.76211C3.17722 6.35038 3.37556 5.96878 3.65397 5.6488C3.99997 5.2548 4.34197 4.8948 4.67697 4.5798C5.01197 4.2648 5.35897 3.9548 5.70397 3.6598C6.02236 3.3827 6.40159 3.18457 6.8109 3.08148C7.2202 2.97839 7.64804 2.97325 8.0597 3.06647C8.47136 3.15969 8.85524 3.34865 9.1802 3.61802C9.50515 3.88739 9.76203 4.22957 9.92998 4.6168L12.894 11.3068C12.9931 11.5298 13.0233 11.7773 12.9805 12.0176C12.9377 12.2578 12.824 12.4798 12.654 12.6548ZM16 8.1458C15.9993 8.9558 15.7196 9.74084 15.208 10.3688C15.0911 10.5042 14.9521 10.6188 14.797 10.7078C14.771 10.6378 14.752 10.5658 14.722 10.4968L11.759 3.8078C11.6092 3.46819 11.4206 3.14705 11.197 2.8508C11.9557 2.51945 12.7408 2.25186 13.544 2.0508C13.8356 1.98101 14.1394 1.97869 14.4321 2.04402C14.7248 2.10935 14.9987 2.24061 15.233 2.4278C15.473 2.61575 15.6669 2.85609 15.7999 3.13045C15.9328 3.40481 16.0012 3.70593 16 4.0108V8.1458ZM21.973 6.8118C21.9203 7.0836 21.7806 7.33086 21.5749 7.51617C21.3692 7.70147 21.1088 7.81473 20.833 7.8388C20.833 7.8388 18.855 8.1808 17.972 8.4688C17.979 8.3608 18 8.2548 18 8.1458V4.2458C19.1879 4.4904 20.3297 4.9214 21.383 5.5228C21.6086 5.64374 21.7884 5.83522 21.895 6.06798C22.0015 6.30075 22.0289 6.56199 21.973 6.8118Z" fill="#4D77FF"/>
</svg>
