<svg width="24" height="24" viewBox="0 0 24 24" fill="none" xmlns="http://www.w3.org/2000/svg">
<g clip-path="url(#clip0_1877_14590)">
<path d="M13.0001 14.1842V8.00024C13.0001 7.73502 12.8948 7.48067 12.7072 7.29314C12.5197 7.1056 12.2653 7.00024 12.0001 7.00024C11.7349 7.00024 11.4806 7.1056 11.293 7.29314C11.1055 7.48067 11.0001 7.73502 11.0001 8.00024V14.1842C10.3346 14.4201 9.77381 14.8835 9.41687 15.4928C9.05992 16.102 8.92978 16.8178 9.04942 17.5136C9.16907 18.2095 9.53081 18.8407 10.0707 19.2957C10.6107 19.7507 11.294 20.0003 12.0001 20.0003C12.7062 20.0003 13.3896 19.7507 13.9295 19.2957C14.4694 18.8407 14.8312 18.2095 14.9508 17.5136C15.0705 16.8178 14.9403 16.102 14.5834 15.4928C14.2264 14.8835 13.6657 14.4201 13.0001 14.1842ZM17.0001 12.1112V5.00025C16.7891 -1.60875 7.20913 -1.59975 7.00013 5.00025V12.1112C6.03546 13.0958 5.38293 14.3432 5.12438 15.6972C4.86582 17.0511 5.01274 18.4512 5.54672 19.722C6.0807 20.9927 6.97796 22.0775 8.126 22.8404C9.27403 23.6033 10.6217 24.0102 12.0001 24.0102C13.3785 24.0102 14.7262 23.6033 15.8743 22.8404C17.0223 22.0775 17.9196 20.9927 18.4535 19.722C18.9875 18.4512 19.1344 17.0511 18.8759 15.6972C18.6173 14.3432 17.9648 13.0958 17.0001 12.1112ZM12.0001 22.0002C10.9937 21.9889 10.0138 21.6752 9.18797 21.0999C8.3621 20.5245 7.72835 19.7141 7.36904 18.7738C7.00974 17.8336 6.94148 16.8071 7.17315 15.8276C7.40482 14.8481 7.9257 13.9609 8.66813 13.2812C8.77258 13.1875 8.85613 13.0728 8.91333 12.9446C8.97053 12.8164 9.0001 12.6776 9.00013 12.5372V5.00025C9.00013 4.2046 9.3162 3.44154 9.87881 2.87893C10.4414 2.31632 11.2045 2.00025 12.0001 2.00025C12.7958 2.00025 13.5588 2.31632 14.1214 2.87893C14.6841 3.44154 15.0001 4.2046 15.0001 5.00025V12.5372C15.0001 12.6776 15.0297 12.8164 15.0869 12.9446C15.1441 13.0728 15.2277 13.1875 15.3321 13.2812C16.0746 13.9609 16.5954 14.8481 16.8271 15.8276C17.0588 16.8071 16.9905 17.8336 16.6312 18.7738C16.2719 19.7141 15.6381 20.5245 14.8123 21.0999C13.9864 21.6752 13.0066 21.9889 12.0001 22.0002Z" fill="#4D77FF"/>
</g>
<defs>
<clipPath id="clip0_1877_14590">
<rect width="24" height="24" fill="white"/>
</clipPath>
</defs>
</svg>
