<svg width="24" height="24" viewBox="0 0 24 24" fill="none" xmlns="http://www.w3.org/2000/svg">
<path d="M23.1939 11.6C22.6625 10.8905 21.9076 10.3807 21.0509 10.153C21.4684 8.93921 21.777 7.69061 21.9729 6.42202C22.0369 5.96089 21.993 5.49119 21.8446 5.04991C21.6962 4.60862 21.4475 4.2078 21.1179 3.87899C20.7883 3.55018 20.3869 3.30236 19.9453 3.15505C19.5036 3.00773 19.0338 2.96493 18.5729 3.03002C18.4469 3.04702 18.0729 3.10202 17.5619 3.20102C17.8783 2.50048 18.0282 1.73618 17.9999 0.968019C17.9957 0.836697 17.9656 0.707488 17.9115 0.587771C17.8574 0.468053 17.7802 0.360171 17.6843 0.270284C17.5885 0.180397 17.4759 0.110265 17.353 0.063893C17.23 0.0175208 17.0992 -0.00418387 16.9679 1.84318e-05C16.8365 0.00422073 16.7073 0.0342476 16.5876 0.0883848C16.4679 0.142522 16.36 0.219709 16.2701 0.315539C16.1802 0.411369 16.1101 0.523965 16.0637 0.646899C16.0174 0.769833 15.9957 0.900697 15.9999 1.03202C16.0169 1.51509 15.9178 1.99519 15.7109 2.43202C15.5662 2.04167 15.3599 1.67705 15.0999 1.35202C14.6578 0.848915 14.0967 0.464669 13.4678 0.234422C12.8389 0.00417394 12.1623 -0.0647276 11.4999 0.0340185C10.7735 0.0923195 10.0793 0.358215 9.49986 0.800019C8.8448 0.307212 8.05232 0.0310486 7.23286 0.0100185C6.19304 -0.0907611 5.15566 0.224588 4.34786 0.887019C3.93768 1.25219 3.60652 1.69738 3.3747 2.19522C3.14289 2.69307 3.01533 3.23306 2.99986 3.78202C2.97241 4.66104 3.22834 5.52559 3.72986 6.24802C3.11976 6.77112 2.64616 7.43487 2.34998 8.18195C2.05379 8.92903 1.94392 9.73698 2.02986 10.536C1.23901 10.9767 0.622698 11.6747 0.283264 12.514C-0.0561706 13.3533 -0.0983059 14.2835 0.163855 15.15C0.848864 17.5335 2.12383 19.7058 3.87086 21.466C5.54686 23.1003 7.798 24.0103 10.1389 24H13.8609C16.2014 24.0105 18.4523 23.1004 20.1279 21.466C21.8755 19.7062 23.1509 17.5338 23.8359 15.15C24.0144 14.5494 24.0493 13.9152 23.9378 13.2985C23.8263 12.6819 23.5715 12.1001 23.1939 11.6ZM18.8509 5.01002C19.0056 4.98914 19.1631 5.00432 19.311 5.05437C19.4589 5.10443 19.5933 5.188 19.7036 5.29857C19.8138 5.40913 19.897 5.54369 19.9467 5.69174C19.9964 5.83979 20.0111 5.99732 19.9899 6.15202C19.7801 7.46521 19.4401 8.75424 18.9749 10H16.4139L17.7069 8.70702C17.889 8.51842 17.9898 8.26581 17.9875 8.00362C17.9853 7.74142 17.8801 7.49061 17.6947 7.3052C17.5093 7.11979 17.2585 7.01462 16.9963 7.01235C16.7341 7.01007 16.4815 7.11086 16.2929 7.29302L13.5859 10H12.0369C11.9638 9.47407 12.014 8.93834 12.1833 8.43508C12.3527 7.93182 12.6367 7.47479 13.0129 7.10002C13.4399 6.66902 15.0769 5.50002 18.8509 5.01002ZM4.99986 3.84902C5.00587 3.57372 5.06794 3.30253 5.18227 3.05202C5.29661 2.80151 5.46081 2.57694 5.66486 2.39202C6.07743 2.08706 6.58997 1.9492 7.09986 2.00602C7.34614 1.99589 7.59178 2.03797 7.82065 2.12948C8.04952 2.221 8.25645 2.35988 8.42786 2.53702C8.56279 2.68778 8.72801 2.80838 8.91274 2.89092C9.09746 2.97346 9.29753 3.01609 9.49986 3.01602C9.70171 3.01502 9.90111 2.9716 10.0851 2.88856C10.2691 2.80552 10.4336 2.68473 10.5679 2.53402C10.717 2.37625 10.896 2.24967 11.0944 2.1616C11.2929 2.07354 11.5068 2.02576 11.7239 2.02102C12.0544 1.96214 12.3944 1.98613 12.7134 2.09083C13.0324 2.19554 13.3205 2.3777 13.5519 2.62102C13.8554 3.00966 14.0139 3.49206 13.9999 3.98502C13.9999 4.05002 13.9999 4.19202 13.9999 4.19202C12.6724 4.67004 11.5384 5.57043 10.7719 6.75502C10.1404 6.00749 9.30023 5.46542 8.35889 5.1982C7.41755 4.93098 6.41788 4.95076 5.48786 5.25502C5.156 4.86335 4.98201 4.36206 4.99986 3.84902ZM3.99986 10C3.99986 9.20437 4.31593 8.44131 4.87854 7.8787C5.44114 7.31609 6.20421 7.00002 6.99986 7.00002C7.79551 7.00002 8.55857 7.31609 9.12118 7.8787C9.68379 8.44131 9.99986 9.20437 9.99986 10H3.99986ZM21.9159 14.589C21.3184 16.6462 20.2187 18.5225 18.7159 20.049C17.4164 21.3115 15.6726 22.0123 13.8609 22H10.1389C8.32664 22.0119 6.58232 21.3112 5.28186 20.049C3.77894 18.5225 2.67927 16.6462 2.08186 14.589C1.99221 14.2863 1.97482 13.9667 2.03109 13.656C2.08736 13.3453 2.21572 13.0521 2.40585 12.8C2.59034 12.5512 2.8307 12.3491 3.10757 12.2102C3.38444 12.0712 3.69008 11.9992 3.99986 12H19.9999C20.3106 11.9983 20.6175 12.0698 20.8955 12.2088C21.1734 12.3478 21.4148 12.5503 21.5999 12.8C21.7886 13.0528 21.9156 13.3463 21.9704 13.657C22.0253 13.9677 22.0066 14.2869 21.9159 14.589Z" fill="#4D77FF"/>
</svg>
