<svg width="24" height="24" viewBox="0 0 24 24" fill="none" xmlns="http://www.w3.org/2000/svg">
<path d="M17 24C15.6155 24 14.2621 23.5895 13.111 22.8203C11.9598 22.0511 11.0626 20.9579 10.5328 19.6788C10.003 18.3997 9.86439 16.9922 10.1345 15.6344C10.4046 14.2765 11.0713 13.0292 12.0502 12.0503C13.0292 11.0713 14.2765 10.4046 15.6344 10.1345C16.9922 9.86441 18.3997 10.003 19.6788 10.5328C20.9579 11.0627 22.0511 11.9599 22.8203 13.111C23.5894 14.2622 24 15.6155 24 17C23.9979 18.8559 23.2597 20.6351 21.9474 21.9474C20.6351 23.2597 18.8559 23.9979 17 24ZM17 12C16.0111 12 15.0444 12.2932 14.2221 12.8427C13.3999 13.3921 12.759 14.173 12.3806 15.0866C12.0021 16.0002 11.9031 17.0056 12.0961 17.9755C12.289 18.9454 12.7652 19.8363 13.4645 20.5355C14.1637 21.2348 15.0546 21.711 16.0245 21.9039C16.9944 22.0969 17.9998 21.9978 18.9134 21.6194C19.827 21.241 20.6079 20.6001 21.1573 19.7779C21.7067 18.9556 22 17.9889 22 17C21.9984 15.6744 21.4711 14.4036 20.5338 13.4662C19.5964 12.5289 18.3256 12.0016 17 12ZM18.707 18.707C18.8945 18.5195 18.9998 18.2652 18.9998 18C18.9998 17.7348 18.8945 17.4805 18.707 17.293L18 16.586V15C18 14.7348 17.8946 14.4804 17.7071 14.2929C17.5196 14.1054 17.2652 14 17 14C16.7348 14 16.4804 14.1054 16.2929 14.2929C16.1053 14.4804 16 14.7348 16 15V17C16 17.2652 16.1054 17.5195 16.293 17.707L17.293 18.707C17.4805 18.8945 17.7348 18.9998 18 18.9998C18.2651 18.9998 18.5195 18.8945 18.707 18.707ZM1.99998 23C2.00251 21.1626 2.61466 19.378 3.74048 17.9258C4.8663 16.4737 6.44214 15.4362 8.22098 14.976C8.34915 14.947 8.47035 14.893 8.57766 14.8171C8.68497 14.7413 8.77628 14.645 8.84639 14.5339C8.9165 14.4227 8.96403 14.2988 8.98626 14.1693C9.0085 14.0398 9.00501 13.9072 8.97598 13.779C8.94696 13.6508 8.89298 13.5296 8.81712 13.4223C8.74126 13.315 8.645 13.2237 8.53385 13.1536C8.4227 13.0835 8.29883 13.036 8.16931 13.0137C8.03979 12.9915 7.90716 12.995 7.77899 13.024C5.55002 13.5709 3.57025 14.8527 2.15896 16.6626C0.747665 18.4725 -0.0128781 20.705 -1.49523e-05 23C-1.49523e-05 23.2652 0.105342 23.5196 0.292878 23.7071C0.480415 23.8946 0.734769 24 0.999985 24C1.2652 24 1.51956 23.8946 1.70709 23.7071C1.89463 23.5196 1.99998 23.2652 1.99998 23ZM8.47398 11C7.38619 11 6.32282 10.6774 5.41835 10.0731C4.51388 9.46874 3.80893 8.60976 3.39265 7.60476C2.97637 6.59977 2.86745 5.4939 3.07967 4.42701C3.29188 3.36011 3.81571 2.3801 4.5849 1.61092C5.35409 0.841726 6.33409 0.317902 7.40099 0.105683C8.46788 -0.106535 9.57375 0.00238308 10.5787 0.418665C11.5837 0.834947 12.4427 1.5399 13.0471 2.44437C13.6514 3.34884 13.974 4.41221 13.974 5.5C13.9724 6.95821 13.3924 8.35623 12.3613 9.38734C11.3302 10.4184 9.93219 10.9984 8.47398 11ZM8.47398 2C7.78175 2 7.10506 2.20527 6.52949 2.58986C5.95392 2.97444 5.50531 3.52107 5.24041 4.16061C4.9755 4.80015 4.90619 5.50389 5.04124 6.18282C5.17629 6.86175 5.50963 7.48539 5.99911 7.97488C6.4886 8.46436 7.11224 8.7977 7.79117 8.93275C8.4701 9.0678 9.17383 8.99849 9.81338 8.73358C10.4529 8.46868 10.9995 8.02007 11.3841 7.4445C11.7687 6.86893 11.974 6.19224 11.974 5.5C11.974 4.57175 11.6052 3.68151 10.9489 3.02513C10.2925 2.36875 9.40224 2 8.47398 2Z" fill="#4D77FF"/>
</svg>
