<svg width="567" height="376" viewBox="0 0 567 376" fill="none" xmlns="http://www.w3.org/2000/svg">
<g filter="url(#filter0_d_2383_26448)">
<rect x="4" width="559" height="368" rx="40" fill="#4D77FF" fill-opacity="0.26"/>
<path d="M267.788 317H263.92L266.094 303.909H270.127C271.371 303.909 272.398 304.173 273.208 304.702C274.018 305.23 274.58 305.987 274.896 306.971C275.211 307.951 275.254 309.123 275.023 310.487C274.798 311.85 274.365 313.018 273.726 313.989C273.087 314.961 272.264 315.707 271.259 316.227C270.257 316.742 269.1 317 267.788 317ZM265.295 315.926H267.852C268.968 315.926 269.944 315.7 270.779 315.249C271.614 314.797 272.294 314.156 272.818 313.325C273.342 312.489 273.698 311.499 273.886 310.352C274.073 309.227 274.052 308.264 273.822 307.463C273.596 306.662 273.159 306.048 272.511 305.622C271.868 305.196 271.013 304.983 269.948 304.983H267.104L265.295 315.926ZM278.96 317.224C278.368 317.224 277.846 317.109 277.394 316.879C276.943 316.644 276.606 316.308 276.384 315.869C276.167 315.425 276.108 314.888 276.206 314.258C276.291 313.772 276.453 313.363 276.691 313.031C276.934 312.698 277.241 312.425 277.612 312.212C277.983 311.995 278.409 311.825 278.89 311.701C279.372 311.577 279.896 311.484 280.463 311.42C281.017 311.352 281.49 311.292 281.882 311.241C282.274 311.19 282.578 311.109 282.796 310.998C283.013 310.887 283.143 310.708 283.186 310.461L283.224 310.231C283.335 309.562 283.233 309.036 282.917 308.652C282.602 308.264 282.073 308.07 281.332 308.07C280.625 308.07 280.011 308.228 279.491 308.543C278.975 308.854 278.592 309.219 278.34 309.636L277.331 309.246C277.637 308.71 278.014 308.281 278.462 307.962C278.909 307.638 279.389 307.406 279.9 307.265C280.411 307.12 280.916 307.048 281.415 307.048C281.79 307.048 282.171 307.097 282.559 307.195C282.947 307.293 283.294 307.463 283.601 307.706C283.912 307.945 284.14 308.279 284.285 308.71C284.434 309.136 284.456 309.677 284.349 310.333L283.237 317H282.099L282.361 315.447H282.291C282.112 315.737 281.865 316.018 281.549 316.29C281.238 316.563 280.865 316.787 280.431 316.962C279.996 317.136 279.506 317.224 278.96 317.224ZM279.248 316.182C279.853 316.182 280.401 316.048 280.891 315.779C281.385 315.511 281.79 315.155 282.105 314.712C282.425 314.264 282.63 313.772 282.719 313.235L282.956 311.816C282.862 311.897 282.708 311.969 282.495 312.033C282.286 312.097 282.05 312.155 281.786 312.206C281.526 312.253 281.264 312.293 281 312.327C280.74 312.362 280.509 312.391 280.309 312.417C279.742 312.485 279.248 312.592 278.826 312.737C278.409 312.881 278.074 313.082 277.823 313.337C277.571 313.589 277.414 313.913 277.35 314.309C277.252 314.906 277.382 315.368 277.74 315.696C278.102 316.02 278.605 316.182 279.248 316.182ZM285.744 320.682C285.518 320.682 285.309 320.661 285.117 320.618C284.93 320.575 284.783 320.528 284.676 320.477L285.156 319.474C285.513 319.597 285.842 319.636 286.14 319.589C286.442 319.546 286.73 319.401 287.003 319.154C287.276 318.907 287.544 318.538 287.808 318.048L288.345 317.051L286.402 307.182H287.585L289.119 315.517H289.202L293.504 307.182H294.788L288.748 318.54C288.488 319.031 288.2 319.433 287.885 319.749C287.574 320.064 287.237 320.298 286.875 320.452C286.517 320.605 286.14 320.682 285.744 320.682ZM302.893 309.336L301.8 309.617C301.745 309.323 301.642 309.059 301.493 308.825C301.348 308.586 301.137 308.398 300.86 308.262C300.588 308.121 300.23 308.051 299.786 308.051C299.122 308.051 298.549 308.213 298.067 308.537C297.585 308.857 297.304 309.266 297.223 309.764C297.155 310.182 297.242 310.521 297.485 310.781C297.733 311.04 298.146 311.245 298.725 311.394L300.157 311.759C300.95 311.963 301.514 312.283 301.851 312.717C302.192 313.152 302.309 313.702 302.203 314.366C302.109 314.92 301.872 315.411 301.493 315.837C301.118 316.263 300.637 316.597 300.049 316.84C299.465 317.083 298.813 317.205 298.093 317.205C297.125 317.205 296.365 316.987 295.811 316.553C295.261 316.118 294.967 315.491 294.929 314.673L296.073 314.418C296.107 314.997 296.305 315.436 296.667 315.734C297.034 316.033 297.549 316.182 298.214 316.182C298.973 316.182 299.61 316.009 300.125 315.664C300.641 315.319 300.937 314.893 301.014 314.386C301.086 313.985 301.012 313.653 300.79 313.388C300.573 313.124 300.202 312.928 299.678 312.8L298.15 312.417C297.328 312.208 296.746 311.882 296.405 311.439C296.068 310.991 295.956 310.44 296.066 309.783C296.156 309.242 296.382 308.767 296.744 308.358C297.106 307.949 297.564 307.629 298.118 307.399C298.672 307.165 299.277 307.048 299.933 307.048C300.837 307.048 301.525 307.252 301.998 307.661C302.471 308.066 302.769 308.624 302.893 309.336Z" fill="black"/>
<path d="M38.6364 215.826L22.2727 213.116L22.2727 212.278L38.6364 214.989L38.6364 215.826ZM27.2521 210.354C26.4851 210.325 25.8842 210.553 25.4496 211.038C25.0149 211.52 24.7976 212.195 24.7976 213.065C24.7976 213.67 24.9041 214.224 25.1172 214.727C25.326 215.225 25.6136 215.636 25.9801 215.96C26.3466 216.28 26.7642 216.478 27.233 216.555C27.5781 216.61 27.8807 216.585 28.1406 216.478C28.3963 216.371 28.6179 216.207 28.8054 215.986C28.9929 215.764 29.1527 215.511 29.2848 215.225C29.4169 214.935 29.5277 214.641 29.6172 214.343L30.0135 213.02C30.1286 212.628 30.2756 212.238 30.4545 211.85C30.6335 211.462 30.8572 211.117 31.1257 210.815C31.3942 210.512 31.7244 210.288 32.1165 210.143C32.5085 209.994 32.9773 209.964 33.5227 210.054C34.2301 210.173 34.8629 210.459 35.4212 210.911C35.9751 211.358 36.4141 211.946 36.7379 212.675C37.0618 213.403 37.2237 214.245 37.2237 215.2C37.2237 216.09 37.0767 216.84 36.7827 217.45C36.4844 218.059 36.0732 218.509 35.549 218.798C35.0249 219.088 34.4176 219.199 33.7273 219.131L33.7273 217.903C34.2429 217.95 34.6797 217.854 35.0376 217.616C35.3956 217.373 35.6683 217.028 35.8558 216.58C36.0391 216.129 36.1307 215.609 36.1307 215.021C36.1307 214.369 36.022 213.77 35.8047 213.224C35.5831 212.679 35.2763 212.229 34.8842 211.876C34.4879 211.518 34.0277 211.296 33.5036 211.211C33.0604 211.134 32.6875 211.187 32.3849 211.371C32.0824 211.55 31.8288 211.829 31.6243 212.208C31.4155 212.583 31.2322 213.031 31.0746 213.55L30.6143 215.046C30.3161 216.022 29.8963 216.749 29.3551 217.226C28.8139 217.699 28.1236 217.867 27.2841 217.731C26.5767 217.612 25.9567 217.32 25.424 216.855C24.8871 216.386 24.4695 215.805 24.1712 215.11C23.8729 214.415 23.7237 213.665 23.7237 212.86C23.7237 212.046 23.875 211.354 24.1776 210.783C24.4801 210.207 24.8977 209.781 25.4304 209.504C25.9588 209.223 26.5661 209.119 27.2521 209.191L27.2521 210.354ZM37 204.252L37 208.119L23.9091 205.946L23.9091 201.913C23.9091 200.668 24.1733 199.641 24.7017 198.832C25.2301 198.022 25.9865 197.459 26.9709 197.144C27.951 196.829 29.1229 196.786 30.4865 197.016C31.8501 197.242 33.0178 197.675 33.9893 198.314C34.9609 198.953 35.7067 199.775 36.2266 200.781C36.7422 201.783 37 202.94 37 204.252ZM35.9261 206.745L35.9261 204.188C35.9261 203.072 35.7003 202.096 35.2486 201.261C34.7969 200.425 34.1555 199.746 33.3246 199.222C32.4893 198.697 31.4986 198.342 30.3523 198.154C29.2273 197.967 28.2642 197.988 27.4631 198.218C26.6619 198.444 26.0483 198.881 25.6222 199.528C25.196 200.172 24.983 201.026 24.983 202.092L24.983 204.936L35.9261 206.745ZM37.2045 191.935C37.2045 192.796 36.9872 193.52 36.5526 194.108C36.1136 194.696 35.5064 195.112 34.7308 195.355C33.9553 195.598 33.0604 195.638 32.0462 195.476C31.0575 195.314 30.1882 194.993 29.4382 194.511C28.6839 194.025 28.098 193.429 27.6804 192.721C27.2585 192.014 27.0476 191.245 27.0476 190.414C27.0476 189.549 27.267 188.824 27.706 188.24C28.1449 187.652 28.7521 187.237 29.5277 186.994C30.3033 186.747 31.2003 186.704 32.2187 186.866C33.2031 187.028 34.0703 187.352 34.8203 187.838C35.566 188.324 36.1499 188.92 36.5717 189.627C36.9936 190.331 37.2045 191.1 37.2045 191.935ZM36.1626 191.922C36.1626 191.223 35.9773 190.601 35.6065 190.056C35.2315 189.506 34.733 189.052 34.1108 188.694C33.4844 188.336 32.7962 188.096 32.0462 187.972C31.3303 187.857 30.6719 187.87 30.071 188.01C29.4702 188.151 28.9886 188.422 28.6264 188.822C28.2642 189.223 28.0831 189.755 28.0831 190.42C28.0831 191.115 28.2727 191.737 28.652 192.287C29.027 192.836 29.5298 193.29 30.1605 193.648C30.7869 194.006 31.473 194.245 32.2187 194.364C32.9389 194.483 33.5973 194.475 34.1939 194.338C34.7905 194.198 35.2678 193.927 35.6257 193.527C35.9837 193.122 36.1626 192.587 36.1626 191.922ZM23.9091 182.21L37 184.383L37 185.521L23.9091 183.348L23.9091 182.21ZM23.9091 178.422L37 180.595L37 181.733L23.9091 179.559L23.9091 178.422ZM37.2237 175.228C37.2237 175.82 37.1087 176.342 36.8785 176.794C36.6442 177.245 36.3075 177.582 35.8686 177.804C35.4254 178.021 34.8885 178.081 34.2578 177.983C33.772 177.897 33.3629 177.735 33.0305 177.497C32.6982 177.254 32.4254 176.947 32.2124 176.576C31.995 176.206 31.8246 175.779 31.701 175.298C31.5774 174.816 31.4837 174.292 31.4197 173.725C31.3516 173.171 31.2919 172.698 31.2408 172.306C31.1896 171.914 31.1087 171.61 30.9979 171.392C30.8871 171.175 30.7081 171.045 30.4609 171.002L30.2308 170.964C29.5618 170.853 29.0355 170.956 28.652 171.271C28.2642 171.586 28.0703 172.115 28.0703 172.856C28.0703 173.563 28.228 174.177 28.5433 174.697C28.8544 175.213 29.2187 175.596 29.6364 175.848L29.2464 176.858C28.7095 176.551 28.2812 176.174 27.9616 175.726C27.6378 175.279 27.4055 174.799 27.2649 174.288C27.12 173.777 27.0476 173.272 27.0476 172.773C27.0476 172.398 27.0966 172.017 27.1946 171.629C27.2926 171.241 27.4631 170.894 27.706 170.587C27.9446 170.276 28.2791 170.048 28.7095 169.903C29.1357 169.754 29.6768 169.733 30.3331 169.839L37 170.951L37 172.089L35.4467 171.827L35.4467 171.897C35.7365 172.076 36.0178 172.323 36.2905 172.639C36.5632 172.95 36.7869 173.323 36.9616 173.757C37.1364 174.192 37.2237 174.682 37.2237 175.228ZM36.1818 174.94C36.1818 174.335 36.0476 173.787 35.7791 173.297C35.5107 172.803 35.1548 172.398 34.7116 172.083C34.2642 171.763 33.772 171.559 33.2351 171.469L31.816 171.233C31.897 171.326 31.9695 171.48 32.0334 171.693C32.0973 171.902 32.1548 172.138 32.206 172.402C32.2528 172.662 32.2933 172.924 32.3274 173.188C32.3615 173.448 32.3913 173.679 32.4169 173.879C32.4851 174.446 32.5916 174.94 32.7365 175.362C32.8814 175.779 33.0817 176.114 33.3374 176.365C33.5888 176.617 33.9126 176.774 34.3089 176.838C34.9055 176.936 35.3679 176.806 35.696 176.448C36.0199 176.086 36.1818 175.583 36.1818 174.94ZM37 168.285L27.1818 166.648L27.1818 165.542L28.6903 165.798L28.6903 165.715C28.196 165.442 27.7976 165.035 27.495 164.494C27.1882 163.949 27.0348 163.367 27.0348 162.749C27.0348 162.655 27.0369 162.551 27.0412 162.436C27.0412 162.321 27.0455 162.225 27.054 162.148L28.2109 162.346C28.2024 162.398 28.1896 162.487 28.1726 162.615C28.1555 162.738 28.147 162.877 28.147 163.03C28.147 163.542 28.2557 164.015 28.473 164.449C28.6861 164.88 28.9822 165.242 29.3615 165.536C29.7408 165.826 30.1733 166.013 30.6591 166.099L37 167.147L37 168.285ZM29.3359 154.336L29.6172 155.429C29.3232 155.484 29.0589 155.587 28.8246 155.736C28.5859 155.881 28.3984 156.092 28.2621 156.369C28.1214 156.641 28.0511 156.999 28.0511 157.443C28.0511 158.107 28.2131 158.681 28.5369 159.162C28.8565 159.644 29.2656 159.925 29.7642 160.006C30.1818 160.074 30.5206 159.987 30.7805 159.744C31.0405 159.497 31.245 159.083 31.3942 158.504L31.7585 157.072C31.9631 156.279 32.2827 155.715 32.7173 155.378C33.152 155.037 33.7017 154.92 34.3665 155.026C34.9205 155.12 35.4105 155.357 35.8366 155.736C36.2628 156.111 36.5973 156.592 36.8402 157.181C37.0831 157.764 37.2045 158.416 37.2045 159.136C37.2045 160.104 36.9872 160.864 36.5526 161.418C36.1179 161.968 35.4915 162.262 34.6733 162.301L34.4176 161.156C34.9972 161.122 35.4361 160.924 35.7344 160.562C36.0327 160.195 36.1818 159.68 36.1818 159.015C36.1818 158.257 36.0092 157.619 35.6641 157.104C35.3189 156.588 34.8928 156.292 34.3857 156.215C33.9851 156.143 33.6527 156.217 33.3885 156.439C33.1243 156.656 32.9283 157.027 32.8004 157.551L32.4169 159.079C32.2081 159.901 31.8821 160.483 31.4389 160.824C30.9915 161.161 30.4396 161.274 29.7834 161.163C29.2422 161.073 28.767 160.847 28.358 160.485C27.9489 160.123 27.6293 159.665 27.3991 159.111C27.1648 158.557 27.0476 157.952 27.0476 157.296C27.0476 156.392 27.2521 155.704 27.6612 155.231C28.066 154.758 28.6243 154.46 29.3359 154.336Z" fill="black"/>
<line x1="51" y1="54.85" x2="528" y2="54.85" stroke="white" stroke-width="0.3"/>
<line x1="51" y1="84.85" x2="528" y2="84.85" stroke="white" stroke-width="0.3"/>
<line x1="51" y1="113.85" x2="528" y2="113.85" stroke="white" stroke-width="0.3"/>
<line x1="51" y1="143.85" x2="528" y2="143.85" stroke="white" stroke-width="0.3"/>
<line x1="51" y1="172.85" x2="528" y2="172.85" stroke="white" stroke-width="0.3"/>
<line x1="51" y1="201.85" x2="528" y2="201.85" stroke="white" stroke-width="0.3"/>
<line x1="51" y1="231.85" x2="528" y2="231.85" stroke="white" stroke-width="0.3"/>
<line x1="51" y1="260.85" x2="528" y2="260.85" stroke="white" stroke-width="0.3"/>
<line x1="51" y1="290.85" x2="528" y2="290.85" stroke="white" stroke-width="0.3"/>
<path d="M62 214.287L117.785 211.534C119.422 211.453 121.063 211.574 122.671 211.894L167.79 220.866C174.465 222.193 181.357 220.035 186.083 215.138L204.391 196.166C206.519 193.961 209.124 192.275 212.007 191.237L225.228 186.476C232.299 183.93 240.201 185.563 245.683 190.703L277.922 220.929C286.889 229.335 301.245 227.741 308.149 217.572L345.43 162.656C350.13 155.732 358.643 152.467 366.768 154.471L397.996 162.176C406.113 164.179 414.62 160.92 419.323 154.007L464.148 88.1104C467.676 82.9236 473.433 79.6926 479.699 79.3834L528 77" stroke="#CE2A96"/>
<path d="M51 260.904L99.1875 256.509C103.604 256.107 108.028 257.183 111.766 259.569L142.608 279.259C152.497 285.571 165.669 282.057 171.099 271.658L187.603 240.049C188.2 238.907 188.684 237.71 189.05 236.475L202.772 190.172C207.764 173.329 230.489 170.643 239.27 185.858L252.032 207.971C260.074 221.907 280.442 221.125 287.392 206.614L312.689 153.794C318.945 140.731 336.58 138.443 345.963 149.477L368.267 175.707C375.335 184.018 387.76 185.132 396.193 178.21L431.249 149.436C434.345 146.895 438.133 145.342 442.121 144.978L491 140.52" stroke="#4EA21A"/>
<path d="M62 175.533L106.924 170.902C111.804 170.4 116.698 171.708 120.676 174.578L147.32 193.801C157.521 201.161 171.902 197.389 177.178 185.97L192.508 152.787C193.002 151.719 193.4 150.61 193.698 149.472L206.196 101.812C210.856 84.0413 234.999 81.4276 243.354 97.7893L252.502 115.704C260.227 130.832 282.101 130.052 288.729 114.412L310.963 61.9443C316.975 47.7577 336.096 45.4113 345.359 57.7233L363.671 82.0603C370.8 91.5355 384.56 92.7627 393.254 84.6985L424.599 55.6217C427.78 52.6709 431.834 50.8346 436.15 50.3898L482 45.664" stroke="#374957"/>
<circle cx="38.5" cy="339.5" r="3.5" fill="#4EA21A"/>
<path d="M51.7159 345L53.4062 334.818H56.6925C57.415 334.818 57.9967 334.956 58.4375 335.231C58.8783 335.506 59.1816 335.88 59.3473 336.354C59.5163 336.828 59.5511 337.364 59.4517 337.96C59.3556 338.55 59.1435 339.084 58.8153 339.561C58.4905 340.035 58.0613 340.411 57.5277 340.69C56.9974 340.968 56.3743 341.107 55.6584 341.107H53.0732L53.2124 340.272H55.7727C56.3063 340.272 56.7654 340.173 57.1499 339.974C57.5376 339.772 57.8475 339.496 58.0795 339.148C58.3116 338.797 58.464 338.401 58.5369 337.96C58.6098 337.513 58.5866 337.115 58.4673 336.767C58.3513 336.419 58.1326 336.147 57.8111 335.952C57.4929 335.753 57.0653 335.653 56.5284 335.653H54.1967L52.6456 345H51.7159ZM60.002 345L61.2747 337.364H62.1348L61.9359 338.537H62.0005C62.2127 338.152 62.5292 337.843 62.9501 337.607C63.3744 337.369 63.8268 337.249 64.3074 337.249C64.3803 337.249 64.4615 337.251 64.551 337.254C64.6405 337.254 64.715 337.258 64.7747 337.264L64.6206 338.164C64.5808 338.157 64.5112 338.147 64.4118 338.134C64.3156 338.121 64.2079 338.114 64.0886 338.114C63.6909 338.114 63.323 338.199 62.9849 338.368C62.6502 338.534 62.3684 338.764 62.1397 339.059C61.9144 339.354 61.7685 339.69 61.7022 340.068L60.8869 345H60.002ZM67.5609 345.159C66.8483 345.159 66.26 344.993 65.796 344.662C65.332 344.327 65.0072 343.865 64.8216 343.275C64.636 342.682 64.6078 341.999 64.7371 341.227C64.8663 340.458 65.1215 339.775 65.5027 339.178C65.8838 338.578 66.3545 338.109 66.9146 337.771C67.4747 337.43 68.0829 337.259 68.7392 337.259C69.1535 337.259 69.5413 337.335 69.9025 337.488C70.2638 337.637 70.5704 337.867 70.8223 338.179C71.0775 338.487 71.2548 338.877 71.3542 339.347C71.4537 339.815 71.4504 340.368 71.3443 341.008L71.2747 341.445H65.3088L65.4331 340.665H70.4991C70.582 340.174 70.5588 339.733 70.4295 339.342C70.3003 338.951 70.0799 338.641 69.7683 338.413C69.4601 338.181 69.0773 338.065 68.6199 338.065C68.1525 338.065 67.7101 338.196 67.2924 338.457C66.8782 338.719 66.5268 339.061 66.2385 339.482C65.9534 339.899 65.7695 340.345 65.6866 340.819L65.5872 341.406C65.4811 342.052 65.4944 342.594 65.627 343.031C65.7595 343.465 65.9998 343.794 66.3478 344.016C66.6959 344.238 67.1416 344.349 67.6852 344.349C68.0498 344.349 68.3796 344.292 68.6746 344.18C68.9695 344.067 69.2264 343.916 69.4451 343.727C69.6639 343.535 69.8396 343.325 69.9721 343.096L70.7626 343.369C70.5936 343.691 70.355 343.987 70.0467 344.259C69.7418 344.531 69.3789 344.75 68.9579 344.915C68.5403 345.078 68.0746 345.159 67.5609 345.159ZM71.8709 347.864L73.6309 337.364H74.491L74.2523 338.82H74.3567C74.4959 338.592 74.6766 338.356 74.8986 338.114C75.124 337.872 75.4041 337.67 75.7388 337.508C76.0769 337.342 76.4813 337.259 76.9519 337.259C77.5816 337.259 78.1037 337.423 78.518 337.751C78.9356 338.08 79.2272 338.54 79.393 339.134C79.562 339.727 79.5802 340.416 79.4476 341.202C79.3184 341.991 79.0715 342.682 78.7069 343.275C78.3423 343.868 77.8965 344.33 77.3695 344.662C76.8458 344.993 76.2725 345.159 75.6493 345.159C75.1886 345.159 74.8158 345.076 74.5307 344.911C74.249 344.745 74.0336 344.541 73.8844 344.299C73.7353 344.054 73.6276 343.815 73.5613 343.583H73.4817L72.7658 347.864H71.8709ZM73.8695 341.187C73.7701 341.803 73.7701 342.35 73.8695 342.827C73.9689 343.301 74.1695 343.674 74.4711 343.946C74.7727 344.214 75.1704 344.349 75.6643 344.349C76.1714 344.349 76.6238 344.21 77.0215 343.931C77.4192 343.649 77.7507 343.27 78.0158 342.793C78.281 342.315 78.4633 341.78 78.5627 341.187C78.6555 340.6 78.6522 340.071 78.5528 339.601C78.4533 339.13 78.2545 338.757 77.9562 338.482C77.6579 338.204 77.2519 338.065 76.7381 338.065C76.241 338.065 75.7935 338.199 75.3958 338.467C75.0014 338.732 74.6733 339.1 74.4114 339.571C74.1496 340.038 73.9689 340.577 73.8695 341.187ZM85.2339 345L84.3489 337.364H86.1835L86.6309 342.733H86.7005L88.9675 337.364H90.7822L91.2594 342.703H91.334L93.5513 337.364H95.3908L91.9555 345H90.0812L89.5045 339.839H89.4001L87.1131 345H85.2339ZM95.0947 345L96.3674 337.364H98.1671L96.8944 345H95.0947ZM97.5308 336.27C97.2424 336.27 97.0038 336.174 96.8149 335.982C96.6259 335.789 96.5431 335.559 96.5663 335.29C96.5895 335.022 96.7104 334.792 96.9292 334.599C97.1513 334.407 97.4048 334.311 97.6899 334.311C97.9782 334.311 98.2152 334.407 98.4008 334.599C98.5897 334.792 98.6726 335.022 98.6494 335.29C98.6295 335.559 98.5085 335.789 98.2864 335.982C98.0677 336.174 97.8158 336.27 97.5308 336.27ZM103.551 337.364L103.317 338.756H98.9324L99.1611 337.364H103.551ZM100.543 335.534H102.343L101.15 342.703C101.113 342.945 101.12 343.131 101.17 343.26C101.223 343.386 101.307 343.472 101.423 343.518C101.542 343.565 101.677 343.588 101.826 343.588C101.935 343.588 102.038 343.58 102.134 343.563C102.23 343.543 102.306 343.528 102.363 343.518L102.442 344.925C102.333 344.959 102.185 344.995 102 345.035C101.818 345.075 101.599 345.098 101.344 345.104C100.886 345.114 100.489 345.045 100.15 344.896C99.8157 344.743 99.5704 344.509 99.4146 344.195C99.2622 343.876 99.2274 343.479 99.3102 343.001L100.543 335.534ZM106.213 340.526L105.477 345H103.672L105.363 334.818H107.128L106.491 338.661H106.586C106.828 338.227 107.158 337.886 107.575 337.637C107.996 337.388 108.502 337.264 109.091 337.264C109.615 337.264 110.056 337.375 110.414 337.597C110.772 337.819 111.024 338.144 111.17 338.572C111.319 338.999 111.344 339.521 111.244 340.138L110.429 345H108.624L109.39 340.416C109.473 339.902 109.405 339.503 109.186 339.218C108.971 338.93 108.629 338.786 108.162 338.786C107.84 338.786 107.544 338.855 107.272 338.994C107 339.13 106.771 339.327 106.586 339.586C106.404 339.844 106.279 340.158 106.213 340.526ZM115.324 345.149C114.572 345.149 113.945 344.983 113.445 344.652C112.948 344.321 112.598 343.855 112.396 343.255C112.194 342.655 112.157 341.959 112.287 341.167C112.416 340.385 112.674 339.7 113.062 339.114C113.453 338.527 113.945 338.073 114.539 337.751C115.135 337.427 115.803 337.264 116.542 337.264C117.295 337.264 117.919 337.432 118.417 337.766C118.914 338.098 119.263 338.563 119.466 339.163C119.671 339.763 119.709 340.463 119.58 341.261C119.454 342.04 119.194 342.721 118.799 343.305C118.408 343.888 117.916 344.342 117.323 344.667C116.73 344.988 116.063 345.149 115.324 345.149ZM115.473 343.707C115.891 343.707 116.257 343.595 116.572 343.369C116.89 343.141 117.151 342.834 117.353 342.45C117.558 342.062 117.701 341.631 117.78 341.157C117.853 340.7 117.855 340.285 117.785 339.914C117.716 339.54 117.566 339.243 117.338 339.024C117.112 338.802 116.799 338.691 116.398 338.691C115.981 338.691 115.611 338.807 115.289 339.039C114.971 339.268 114.711 339.576 114.509 339.964C114.307 340.348 114.168 340.777 114.091 341.251C114.015 341.709 114.012 342.123 114.081 342.494C114.151 342.866 114.3 343.161 114.529 343.379C114.758 343.598 115.072 343.707 115.473 343.707ZM125.61 341.788L126.351 337.364H128.151L126.878 345H125.133L125.362 343.643H125.282C125.043 344.07 124.702 344.42 124.258 344.692C123.817 344.964 123.31 345.099 122.737 345.099C122.236 345.099 121.814 344.988 121.469 344.766C121.124 344.541 120.879 344.214 120.733 343.787C120.591 343.356 120.569 342.836 120.668 342.226L121.484 337.364H123.283L122.518 341.947C122.442 342.431 122.511 342.816 122.727 343.101C122.945 343.386 123.27 343.528 123.701 343.528C123.966 343.528 124.233 343.464 124.501 343.335C124.773 343.205 125.01 343.013 125.212 342.758C125.415 342.499 125.547 342.176 125.61 341.788ZM133.535 337.364L133.301 338.756H128.916L129.145 337.364H133.535ZM130.527 335.534H132.326L131.133 342.703C131.097 342.945 131.103 343.131 131.153 343.26C131.206 343.386 131.291 343.472 131.407 343.518C131.526 343.565 131.66 343.588 131.809 343.588C131.919 343.588 132.022 343.58 132.118 343.563C132.214 343.543 132.29 343.528 132.346 343.518L132.426 344.925C132.316 344.959 132.169 344.995 131.983 345.035C131.801 345.075 131.582 345.098 131.327 345.104C130.87 345.114 130.472 345.045 130.134 344.896C129.799 344.743 129.554 344.509 129.398 344.195C129.246 343.876 129.211 343.479 129.294 343.001L130.527 335.534ZM146.682 340.028C146.503 341.109 146.15 342.03 145.623 342.793C145.1 343.552 144.46 344.133 143.704 344.538C142.952 344.939 142.142 345.139 141.273 345.139C140.362 345.139 139.58 344.927 138.927 344.503C138.274 344.075 137.803 343.464 137.515 342.668C137.23 341.873 137.18 340.918 137.366 339.805C137.545 338.728 137.896 337.806 138.42 337.04C138.943 336.275 139.585 335.69 140.344 335.286C141.103 334.881 141.921 334.679 142.8 334.679C143.704 334.679 144.48 334.893 145.126 335.32C145.776 335.745 146.243 336.356 146.528 337.155C146.817 337.954 146.868 338.911 146.682 340.028ZM144.868 339.805C144.99 339.052 144.979 338.418 144.833 337.901C144.69 337.384 144.437 336.994 144.072 336.732C143.708 336.467 143.259 336.335 142.725 336.335C142.148 336.335 141.615 336.479 141.124 336.767C140.637 337.052 140.223 337.47 139.881 338.02C139.543 338.57 139.311 339.24 139.185 340.028C139.053 340.784 139.061 341.419 139.21 341.933C139.359 342.446 139.618 342.834 139.986 343.096C140.354 343.354 140.803 343.484 141.333 343.484C141.906 343.484 142.437 343.341 142.924 343.056C143.411 342.771 143.824 342.355 144.162 341.808C144.503 341.261 144.739 340.594 144.868 339.805ZM147.241 345L148.514 337.364H150.259L150.045 338.636H150.125C150.334 338.196 150.629 337.856 151.01 337.617C151.394 337.375 151.805 337.254 152.243 337.254C152.346 337.254 152.457 337.259 152.576 337.269C152.695 337.276 152.798 337.287 152.884 337.304L152.606 338.96C152.53 338.933 152.41 338.91 152.248 338.89C152.089 338.867 151.931 338.855 151.775 338.855C151.447 338.855 151.142 338.926 150.861 339.069C150.582 339.208 150.347 339.402 150.155 339.651C149.963 339.899 149.838 340.186 149.782 340.511L149.041 345H147.241ZM154.559 342.604L154.912 340.431H155.201L158.467 337.364H160.57L156.573 341.122H156.205L154.559 342.604ZM152.526 345L154.216 334.818H156.016L154.326 345H152.526ZM157.318 345L155.409 341.525L156.836 340.257L159.471 345H157.318ZM163.263 345.149C162.497 345.149 161.864 344.99 161.364 344.672C160.863 344.35 160.512 343.896 160.31 343.31C160.111 342.72 160.078 342.025 160.21 341.227C160.34 340.441 160.603 339.752 161.001 339.158C161.399 338.562 161.896 338.098 162.492 337.766C163.092 337.432 163.755 337.264 164.481 337.264C164.952 337.264 165.384 337.34 165.779 337.493C166.173 337.642 166.506 337.874 166.778 338.189C167.05 338.504 167.237 338.905 167.34 339.392C167.442 339.876 167.437 340.453 167.325 341.122L167.24 341.674H160.976L161.17 340.461H165.704C165.764 340.116 165.744 339.81 165.644 339.541C165.545 339.269 165.379 339.056 165.147 338.9C164.915 338.744 164.625 338.666 164.277 338.666C163.922 338.666 163.591 338.757 163.283 338.94C162.978 339.119 162.721 339.351 162.512 339.636C162.303 339.921 162.171 340.221 162.114 340.536L161.911 341.699C161.838 342.176 161.854 342.566 161.96 342.867C162.066 343.169 162.252 343.391 162.517 343.533C162.782 343.676 163.117 343.747 163.521 343.747C163.787 343.747 164.032 343.711 164.257 343.638C164.483 343.565 164.683 343.455 164.859 343.31C165.038 343.161 165.187 342.978 165.306 342.763L166.952 342.952C166.77 343.396 166.503 343.784 166.151 344.115C165.8 344.443 165.379 344.698 164.889 344.881C164.401 345.06 163.859 345.149 163.263 345.149ZM170.48 340.526L169.744 345H167.94L169.212 337.364H170.937L170.719 338.661H170.813C171.052 338.234 171.387 337.894 171.817 337.642C172.248 337.39 172.75 337.264 173.324 337.264C173.844 337.264 174.282 337.377 174.636 337.602C174.991 337.824 175.243 338.151 175.392 338.582C175.541 339.009 175.564 339.528 175.462 340.138L174.646 345H172.847L173.607 340.416C173.693 339.909 173.629 339.511 173.413 339.223C173.201 338.931 172.86 338.786 172.389 338.786C172.074 338.786 171.784 338.855 171.519 338.994C171.254 339.13 171.03 339.327 170.848 339.586C170.669 339.844 170.546 340.158 170.48 340.526ZM179.547 345.149C178.781 345.149 178.148 344.99 177.647 344.672C177.147 344.35 176.796 343.896 176.594 343.31C176.395 342.72 176.362 342.025 176.494 341.227C176.623 340.441 176.887 339.752 177.285 339.158C177.682 338.562 178.179 338.098 178.776 337.766C179.376 337.432 180.039 337.264 180.765 337.264C181.235 337.264 181.668 337.34 182.062 337.493C182.457 337.642 182.79 337.874 183.062 338.189C183.333 338.504 183.521 338.905 183.623 339.392C183.726 339.876 183.721 340.453 183.608 341.122L183.524 341.674H177.26L177.454 340.461H181.988C182.047 340.116 182.027 339.81 181.928 339.541C181.829 339.269 181.663 339.056 181.431 338.9C181.199 338.744 180.909 338.666 180.561 338.666C180.206 338.666 179.875 338.757 179.567 338.94C179.262 339.119 179.005 339.351 178.796 339.636C178.587 339.921 178.455 340.221 178.398 340.536L178.194 341.699C178.121 342.176 178.138 342.566 178.244 342.867C178.35 343.169 178.536 343.391 178.801 343.533C179.066 343.676 179.401 343.747 179.805 343.747C180.07 343.747 180.316 343.711 180.541 343.638C180.766 343.565 180.967 343.455 181.143 343.31C181.322 343.161 181.471 342.978 181.59 342.763L183.236 342.952C183.053 343.396 182.786 343.784 182.435 344.115C182.084 344.443 181.663 344.698 181.172 344.881C180.685 345.06 180.143 345.149 179.547 345.149ZM187.569 345.149C186.817 345.149 186.19 344.983 185.69 344.652C185.193 344.321 184.843 343.855 184.641 343.255C184.439 342.655 184.402 341.959 184.532 341.167C184.661 340.385 184.919 339.7 185.307 339.114C185.698 338.527 186.19 338.073 186.784 337.751C187.38 337.427 188.048 337.264 188.787 337.264C189.54 337.264 190.164 337.432 190.662 337.766C191.159 338.098 191.508 338.563 191.711 339.163C191.916 339.763 191.954 340.463 191.825 341.261C191.699 342.04 191.439 342.721 191.044 343.305C190.653 343.888 190.161 344.342 189.568 344.667C188.975 344.988 188.308 345.149 187.569 345.149ZM187.718 343.707C188.136 343.707 188.502 343.595 188.817 343.369C189.135 343.141 189.395 342.834 189.598 342.45C189.803 342.062 189.946 341.631 190.025 341.157C190.098 340.7 190.1 340.285 190.03 339.914C189.961 339.54 189.811 339.243 189.583 339.024C189.357 338.802 189.044 338.691 188.643 338.691C188.225 338.691 187.856 338.807 187.534 339.039C187.216 339.268 186.956 339.576 186.754 339.964C186.552 340.348 186.412 340.777 186.336 341.251C186.26 341.709 186.257 342.123 186.326 342.494C186.396 342.866 186.545 343.161 186.774 343.379C187.002 343.598 187.317 343.707 187.718 343.707Z" fill="black"/>
<circle cx="211.5" cy="339.5" r="3.5" fill="#CE2A96"/>
<path d="M224.716 345L226.406 334.818H229.692C230.415 334.818 230.997 334.956 231.438 335.231C231.878 335.506 232.182 335.88 232.347 336.354C232.516 336.828 232.551 337.364 232.452 337.96C232.356 338.55 232.143 339.084 231.815 339.561C231.491 340.035 231.061 340.411 230.528 340.69C229.997 340.968 229.374 341.107 228.658 341.107H226.073L226.212 340.272H228.773C229.306 340.272 229.765 340.173 230.15 339.974C230.538 339.772 230.848 339.496 231.08 339.148C231.312 338.797 231.464 338.401 231.537 337.96C231.61 337.513 231.587 337.115 231.467 336.767C231.351 336.419 231.133 336.147 230.811 335.952C230.493 335.753 230.065 335.653 229.528 335.653H227.197L225.646 345H224.716ZM233.002 345L234.275 337.364H235.135L234.936 338.537H235.001C235.213 338.152 235.529 337.843 235.95 337.607C236.374 337.369 236.827 337.249 237.307 337.249C237.38 337.249 237.461 337.251 237.551 337.254C237.64 337.254 237.715 337.258 237.775 337.264L237.621 338.164C237.581 338.157 237.511 338.147 237.412 338.134C237.316 338.121 237.208 338.114 237.089 338.114C236.691 338.114 236.323 338.199 235.985 338.368C235.65 338.534 235.368 338.764 235.14 339.059C234.914 339.354 234.769 339.69 234.702 340.068L233.887 345H233.002ZM240.561 345.159C239.848 345.159 239.26 344.993 238.796 344.662C238.332 344.327 238.007 343.865 237.822 343.275C237.636 342.682 237.608 341.999 237.737 341.227C237.866 340.458 238.122 339.775 238.503 339.178C238.884 338.578 239.354 338.109 239.915 337.771C240.475 337.43 241.083 337.259 241.739 337.259C242.153 337.259 242.541 337.335 242.903 337.488C243.264 337.637 243.57 337.867 243.822 338.179C244.077 338.487 244.255 338.877 244.354 339.347C244.454 339.815 244.45 340.368 244.344 341.008L244.275 341.445H238.309L238.433 340.665H243.499C243.582 340.174 243.559 339.733 243.43 339.342C243.3 338.951 243.08 338.641 242.768 338.413C242.46 338.181 242.077 338.065 241.62 338.065C241.153 338.065 240.71 338.196 240.292 338.457C239.878 338.719 239.527 339.061 239.238 339.482C238.953 339.899 238.769 340.345 238.687 340.819L238.587 341.406C238.481 342.052 238.494 342.594 238.627 343.031C238.76 343.465 239 343.794 239.348 344.016C239.696 344.238 240.142 344.349 240.685 344.349C241.05 344.349 241.38 344.292 241.675 344.18C241.97 344.067 242.226 343.916 242.445 343.727C242.664 343.535 242.84 343.325 242.972 343.096L243.763 343.369C243.594 343.691 243.355 343.987 243.047 344.259C242.742 344.531 242.379 344.75 241.958 344.915C241.54 345.078 241.075 345.159 240.561 345.159ZM244.871 347.864L246.631 337.364H247.491L247.252 338.82H247.357C247.496 338.592 247.677 338.356 247.899 338.114C248.124 337.872 248.404 337.67 248.739 337.508C249.077 337.342 249.481 337.259 249.952 337.259C250.582 337.259 251.104 337.423 251.518 337.751C251.936 338.08 252.227 338.54 252.393 339.134C252.562 339.727 252.58 340.416 252.448 341.202C252.318 341.991 252.071 342.682 251.707 343.275C251.342 343.868 250.897 344.33 250.37 344.662C249.846 344.993 249.272 345.159 248.649 345.159C248.189 345.159 247.816 345.076 247.531 344.911C247.249 344.745 247.034 344.541 246.884 344.299C246.735 344.054 246.628 343.815 246.561 343.583H246.482L245.766 347.864H244.871ZM246.87 341.187C246.77 341.803 246.77 342.35 246.87 342.827C246.969 343.301 247.169 343.674 247.471 343.946C247.773 344.214 248.17 344.349 248.664 344.349C249.171 344.349 249.624 344.21 250.022 343.931C250.419 343.649 250.751 343.27 251.016 342.793C251.281 342.315 251.463 341.78 251.563 341.187C251.656 340.6 251.652 340.071 251.553 339.601C251.453 339.13 251.254 338.757 250.956 338.482C250.658 338.204 250.252 338.065 249.738 338.065C249.241 338.065 248.794 338.199 248.396 338.467C248.001 338.732 247.673 339.1 247.411 339.571C247.15 340.038 246.969 340.577 246.87 341.187ZM258.234 345L257.349 337.364H259.183L259.631 342.733H259.7L261.968 337.364H263.782L264.259 342.703H264.334L266.551 337.364H268.391L264.955 345H263.081L262.504 339.839H262.4L260.113 345H258.234ZM268.095 345L269.367 337.364H271.167L269.894 345H268.095ZM270.531 336.27C270.242 336.27 270.004 336.174 269.815 335.982C269.626 335.789 269.543 335.559 269.566 335.29C269.589 335.022 269.71 334.792 269.929 334.599C270.151 334.407 270.405 334.311 270.69 334.311C270.978 334.311 271.215 334.407 271.401 334.599C271.59 334.792 271.673 335.022 271.649 335.29C271.629 335.559 271.509 335.789 271.286 335.982C271.068 336.174 270.816 336.27 270.531 336.27ZM276.551 337.364L276.317 338.756H271.932L272.161 337.364H276.551ZM273.543 335.534H275.343L274.15 342.703C274.113 342.945 274.12 343.131 274.17 343.26C274.223 343.386 274.307 343.472 274.423 343.518C274.542 343.565 274.677 343.588 274.826 343.588C274.935 343.588 275.038 343.58 275.134 343.563C275.23 343.543 275.306 343.528 275.363 343.518L275.442 344.925C275.333 344.959 275.185 344.995 275 345.035C274.818 345.075 274.599 345.098 274.344 345.104C273.886 345.114 273.489 345.045 273.15 344.896C272.816 344.743 272.57 344.509 272.415 344.195C272.262 343.876 272.227 343.479 272.31 343.001L273.543 335.534ZM279.213 340.526L278.477 345H276.672L278.363 334.818H280.128L279.491 338.661H279.586C279.828 338.227 280.158 337.886 280.575 337.637C280.996 337.388 281.502 337.264 282.091 337.264C282.615 337.264 283.056 337.375 283.414 337.597C283.772 337.819 284.024 338.144 284.17 338.572C284.319 338.999 284.344 339.521 284.244 340.138L283.429 345H281.624L282.39 340.416C282.473 339.902 282.405 339.503 282.186 339.218C281.971 338.93 281.629 338.786 281.162 338.786C280.84 338.786 280.544 338.855 280.272 338.994C280 339.13 279.771 339.327 279.586 339.586C279.404 339.844 279.279 340.158 279.213 340.526ZM298.169 340.028C297.99 341.109 297.637 342.03 297.11 342.793C296.586 343.552 295.947 344.133 295.191 344.538C294.439 344.939 293.628 345.139 292.76 345.139C291.848 345.139 291.066 344.927 290.413 344.503C289.76 344.075 289.29 343.464 289.001 342.668C288.716 341.873 288.667 340.918 288.852 339.805C289.031 338.728 289.382 337.806 289.906 337.04C290.43 336.275 291.071 335.69 291.83 335.286C292.589 334.881 293.408 334.679 294.286 334.679C295.191 334.679 295.967 334.893 296.613 335.32C297.262 335.745 297.73 336.356 298.015 337.155C298.303 337.954 298.355 338.911 298.169 340.028ZM296.354 339.805C296.477 339.052 296.465 338.418 296.319 337.901C296.177 337.384 295.923 336.994 295.559 336.732C295.194 336.467 294.745 336.335 294.212 336.335C293.635 336.335 293.101 336.479 292.611 336.767C292.123 337.052 291.709 337.47 291.368 338.02C291.03 338.57 290.798 339.24 290.672 340.028C290.539 340.784 290.547 341.419 290.697 341.933C290.846 342.446 291.104 342.834 291.472 343.096C291.84 343.354 292.289 343.484 292.819 343.484C293.393 343.484 293.923 343.341 294.41 343.056C294.898 342.771 295.31 342.355 295.648 341.808C295.99 341.261 296.225 340.594 296.354 339.805ZM298.728 345L300.001 337.364H301.746L301.532 338.636H301.611C301.82 338.196 302.115 337.856 302.496 337.617C302.881 337.375 303.292 337.254 303.729 337.254C303.832 337.254 303.943 337.259 304.062 337.269C304.182 337.276 304.284 337.287 304.371 337.304L304.092 338.96C304.016 338.933 303.897 338.91 303.734 338.89C303.575 338.867 303.418 338.855 303.262 338.855C302.934 338.855 302.629 338.926 302.347 339.069C302.069 339.208 301.833 339.402 301.641 339.651C301.449 339.899 301.325 340.186 301.268 340.511L300.528 345H298.728ZM306.046 342.604L306.399 340.431H306.687L309.953 337.364H312.056L308.059 341.122H307.691L306.046 342.604ZM304.012 345L305.703 334.818H307.502L305.812 345H304.012ZM308.805 345L306.896 341.525L308.323 340.257L310.958 345H308.805ZM314.749 345.149C313.984 345.149 313.351 344.99 312.85 344.672C312.35 344.35 311.998 343.896 311.796 343.31C311.597 342.72 311.564 342.025 311.697 341.227C311.826 340.441 312.09 339.752 312.487 339.158C312.885 338.562 313.382 338.098 313.979 337.766C314.579 337.432 315.242 337.264 315.967 337.264C316.438 337.264 316.871 337.34 317.265 337.493C317.659 337.642 317.993 337.874 318.264 338.189C318.536 338.504 318.723 338.905 318.826 339.392C318.929 339.876 318.924 340.453 318.811 341.122L318.727 341.674H312.462L312.656 340.461H317.19C317.25 340.116 317.23 339.81 317.131 339.541C317.031 339.269 316.866 339.056 316.634 338.9C316.402 338.744 316.112 338.666 315.764 338.666C315.409 338.666 315.078 338.757 314.769 338.94C314.464 339.119 314.207 339.351 313.999 339.636C313.79 339.921 313.657 340.221 313.601 340.536L313.397 341.699C313.324 342.176 313.341 342.566 313.447 342.867C313.553 343.169 313.738 343.391 314.004 343.533C314.269 343.676 314.604 343.747 315.008 343.747C315.273 343.747 315.518 343.711 315.744 343.638C315.969 343.565 316.17 343.455 316.345 343.31C316.524 343.161 316.673 342.978 316.793 342.763L318.438 342.952C318.256 343.396 317.989 343.784 317.638 344.115C317.287 344.443 316.866 344.698 316.375 344.881C315.888 345.06 315.346 345.149 314.749 345.149ZM321.967 340.526L321.231 345H319.426L320.699 337.364H322.424L322.205 338.661H322.3C322.538 338.234 322.873 337.894 323.304 337.642C323.735 337.39 324.237 337.264 324.81 337.264C325.331 337.264 325.768 337.377 326.123 337.602C326.477 337.824 326.729 338.151 326.878 338.582C327.028 339.009 327.051 339.528 326.948 340.138L326.133 345H324.333L325.094 340.416C325.18 339.909 325.115 339.511 324.9 339.223C324.688 338.931 324.346 338.786 323.876 338.786C323.561 338.786 323.271 338.855 323.006 338.994C322.74 339.13 322.517 339.327 322.334 339.586C322.155 339.844 322.033 340.158 321.967 340.526ZM331.033 345.149C330.268 345.149 329.634 344.99 329.134 344.672C328.634 344.35 328.282 343.896 328.08 343.31C327.881 342.72 327.848 342.025 327.981 341.227C328.11 340.441 328.373 339.752 328.771 339.158C329.169 338.562 329.666 338.098 330.263 337.766C330.862 337.432 331.525 337.264 332.251 337.264C332.722 337.264 333.154 337.34 333.549 337.493C333.943 337.642 334.276 337.874 334.548 338.189C334.82 338.504 335.007 338.905 335.11 339.392C335.213 339.876 335.208 340.453 335.095 341.122L335.01 341.674H328.746L328.94 340.461H333.474C333.534 340.116 333.514 339.81 333.415 339.541C333.315 339.269 333.149 339.056 332.917 338.9C332.685 338.744 332.395 338.666 332.047 338.666C331.693 338.666 331.361 338.757 331.053 338.94C330.748 339.119 330.491 339.351 330.282 339.636C330.074 339.921 329.941 340.221 329.885 340.536L329.681 341.699C329.608 342.176 329.625 342.566 329.731 342.867C329.837 343.169 330.022 343.391 330.287 343.533C330.553 343.676 330.887 343.747 331.292 343.747C331.557 343.747 331.802 343.711 332.027 343.638C332.253 343.565 332.453 343.455 332.629 343.31C332.808 343.161 332.957 342.978 333.076 342.763L334.722 342.952C334.54 343.396 334.273 343.784 333.922 344.115C333.57 344.443 333.149 344.698 332.659 344.881C332.172 345.06 331.63 345.149 331.033 345.149ZM339.056 345.149C338.303 345.149 337.677 344.983 337.176 344.652C336.679 344.321 336.33 343.855 336.127 343.255C335.925 342.655 335.889 341.959 336.018 341.167C336.147 340.385 336.406 339.7 336.794 339.114C337.185 338.527 337.677 338.073 338.27 337.751C338.867 337.427 339.535 337.264 340.274 337.264C341.026 337.264 341.651 337.432 342.148 337.766C342.645 338.098 342.995 338.563 343.197 339.163C343.403 339.763 343.441 340.463 343.311 341.261C343.185 342.04 342.925 342.721 342.531 343.305C342.14 343.888 341.648 344.342 341.054 344.667C340.461 344.988 339.795 345.149 339.056 345.149ZM339.205 343.707C339.622 343.707 339.989 343.595 340.304 343.369C340.622 343.141 340.882 342.834 341.084 342.45C341.29 342.062 341.432 341.631 341.512 341.157C341.585 340.7 341.586 340.285 341.517 339.914C341.447 339.54 341.298 339.243 341.069 339.024C340.844 338.802 340.531 338.691 340.13 338.691C339.712 338.691 339.342 338.807 339.021 339.039C338.703 339.268 338.443 339.576 338.24 339.964C338.038 340.348 337.899 340.777 337.823 341.251C337.746 341.709 337.743 342.123 337.813 342.494C337.882 342.866 338.032 343.161 338.26 343.379C338.489 343.598 338.804 343.707 339.205 343.707Z" fill="black"/>
<circle cx="362.5" cy="339.5" r="3.5" fill="#374957"/>
<path d="M377.486 345L376.387 334.818H377.332L378.182 343.573H378.261L382.025 334.818H383.099L383.954 343.573H384.033L387.792 334.818H388.746L384.267 345H383.268L382.343 336.364H382.278L378.48 345H377.486ZM389.943 340.227L389.153 345H388.268L389.958 334.818H390.843L390.226 338.562H390.306C390.545 338.164 390.873 337.849 391.29 337.617C391.708 337.382 392.207 337.264 392.787 337.264C393.3 337.264 393.735 337.37 394.089 337.582C394.447 337.795 394.701 338.108 394.85 338.522C395.002 338.936 395.029 339.447 394.93 340.053L394.099 345H393.209L394.025 340.108C394.127 339.478 394.035 338.983 393.746 338.621C393.461 338.257 393.024 338.075 392.434 338.075C392.029 338.075 391.652 338.161 391.3 338.333C390.952 338.505 390.657 338.754 390.415 339.079C390.177 339.4 390.019 339.783 389.943 340.227ZM398.263 345.174C397.802 345.174 397.396 345.085 397.045 344.906C396.693 344.723 396.431 344.461 396.259 344.12C396.09 343.775 396.044 343.358 396.12 342.867C396.186 342.489 396.312 342.171 396.498 341.913C396.687 341.654 396.925 341.442 397.214 341.276C397.502 341.107 397.833 340.975 398.208 340.879C398.582 340.782 398.99 340.71 399.431 340.66C399.862 340.607 400.23 340.56 400.535 340.521C400.84 340.481 401.077 340.418 401.246 340.332C401.415 340.246 401.516 340.106 401.549 339.914L401.579 339.735C401.665 339.215 401.585 338.805 401.34 338.507C401.095 338.205 400.684 338.055 400.107 338.055C399.557 338.055 399.08 338.177 398.675 338.423C398.274 338.665 397.976 338.948 397.78 339.273L396.995 338.969C397.234 338.552 397.527 338.219 397.875 337.97C398.223 337.718 398.596 337.538 398.993 337.428C399.391 337.316 399.784 337.259 400.172 337.259C400.463 337.259 400.76 337.297 401.062 337.374C401.363 337.45 401.633 337.582 401.872 337.771C402.114 337.957 402.291 338.217 402.404 338.552C402.52 338.883 402.537 339.304 402.454 339.815L401.589 345H400.704L400.908 343.792H400.853C400.714 344.017 400.521 344.236 400.276 344.448C400.034 344.66 399.744 344.834 399.406 344.97C399.068 345.106 398.687 345.174 398.263 345.174ZM398.486 344.364C398.957 344.364 399.383 344.259 399.764 344.05C400.149 343.842 400.463 343.565 400.709 343.22C400.957 342.872 401.116 342.489 401.186 342.072L401.37 340.968C401.297 341.031 401.178 341.087 401.012 341.137C400.85 341.187 400.666 341.232 400.46 341.271C400.258 341.308 400.054 341.339 399.849 341.366C399.646 341.392 399.467 341.415 399.312 341.435C398.871 341.488 398.486 341.571 398.158 341.684C397.833 341.797 397.573 341.952 397.378 342.151C397.182 342.347 397.059 342.599 397.01 342.907C396.934 343.371 397.035 343.731 397.313 343.986C397.595 344.238 397.986 344.364 398.486 344.364ZM407.943 337.364L407.819 338.134H404.17L404.299 337.364H407.943ZM405.736 335.534H406.626L405.383 343.006C405.33 343.325 405.343 343.575 405.423 343.757C405.502 343.936 405.625 344.064 405.791 344.14C405.956 344.213 406.139 344.249 406.337 344.249C406.453 344.249 406.553 344.243 406.636 344.229C406.722 344.213 406.798 344.196 406.864 344.18L406.929 344.98C406.833 345.013 406.719 345.043 406.586 345.07C406.453 345.099 406.294 345.114 406.109 345.114C405.784 345.114 405.484 345.043 405.209 344.901C404.934 344.758 404.725 344.546 404.582 344.264C404.44 343.982 404.402 343.633 404.468 343.215L405.736 335.534ZM413.527 345.154C413.043 345.154 412.622 345.068 412.264 344.896C411.906 344.72 411.643 344.461 411.474 344.12C411.308 343.779 411.266 343.358 411.349 342.857C411.422 342.426 411.561 342.07 411.767 341.788C411.976 341.507 412.231 341.281 412.533 341.112C412.837 340.94 413.169 340.811 413.527 340.724C413.888 340.638 414.256 340.575 414.631 340.536C415.088 340.489 415.457 340.446 415.739 340.406C416.024 340.366 416.238 340.307 416.381 340.227C416.523 340.144 416.609 340.018 416.639 339.849V339.82C416.699 339.445 416.639 339.155 416.46 338.95C416.281 338.744 415.983 338.641 415.565 338.641C415.128 338.641 414.76 338.737 414.462 338.93C414.163 339.122 413.946 339.349 413.81 339.611L412.18 339.372C412.385 338.908 412.667 338.52 413.025 338.209C413.383 337.894 413.795 337.659 414.263 337.503C414.733 337.344 415.235 337.264 415.769 337.264C416.134 337.264 416.49 337.307 416.838 337.393C417.189 337.48 417.499 337.622 417.768 337.821C418.039 338.017 418.238 338.283 418.364 338.621C418.493 338.96 418.515 339.382 418.429 339.889L417.579 345H415.849L416.028 343.951H415.968C415.825 344.163 415.64 344.362 415.411 344.548C415.182 344.73 414.911 344.877 414.596 344.99C414.281 345.099 413.925 345.154 413.527 345.154ZM414.208 343.832C414.569 343.832 414.894 343.76 415.182 343.618C415.471 343.472 415.708 343.28 415.893 343.041C416.079 342.803 416.195 342.542 416.241 342.261L416.39 341.361C416.324 341.407 416.221 341.45 416.082 341.49C415.943 341.53 415.787 341.565 415.615 341.594C415.446 341.624 415.279 341.651 415.113 341.674C414.947 341.697 414.805 341.717 414.685 341.734C414.41 341.77 414.158 341.83 413.93 341.913C413.704 341.996 413.517 342.112 413.368 342.261C413.222 342.406 413.131 342.595 413.094 342.827C413.041 343.156 413.119 343.406 413.328 343.578C413.537 343.747 413.83 343.832 414.208 343.832ZM422.419 345.149C421.657 345.149 421.031 344.982 420.54 344.647C420.05 344.312 419.707 343.85 419.511 343.26C419.319 342.667 419.287 341.984 419.417 341.212C419.543 340.436 419.803 339.752 420.197 339.158C420.595 338.562 421.095 338.098 421.699 337.766C422.302 337.432 422.976 337.264 423.722 337.264C424.342 337.264 424.87 337.379 425.308 337.607C425.749 337.833 426.077 338.152 426.292 338.567C426.511 338.978 426.596 339.458 426.546 340.009H424.821C424.814 339.641 424.7 339.334 424.478 339.089C424.256 338.84 423.931 338.716 423.503 338.716C423.132 338.716 422.791 338.815 422.479 339.014C422.168 339.21 421.904 339.491 421.689 339.859C421.473 340.227 421.324 340.668 421.241 341.182C421.155 341.702 421.157 342.15 421.246 342.524C421.339 342.895 421.506 343.182 421.748 343.384C421.994 343.583 422.303 343.683 422.678 343.683C422.943 343.683 423.19 343.633 423.419 343.533C423.647 343.431 423.848 343.283 424.02 343.091C424.196 342.899 424.333 342.665 424.433 342.39H426.153C426.017 342.93 425.775 343.409 425.427 343.827C425.083 344.241 424.655 344.566 424.145 344.801C423.634 345.033 423.059 345.149 422.419 345.149ZM431.994 337.364L431.761 338.756H427.376L427.604 337.364H431.994ZM428.987 335.534H430.786L429.593 342.703C429.557 342.945 429.563 343.131 429.613 343.26C429.666 343.386 429.751 343.472 429.867 343.518C429.986 343.565 430.12 343.588 430.269 343.588C430.379 343.588 430.481 343.58 430.577 343.563C430.674 343.543 430.75 343.528 430.806 343.518L430.886 344.925C430.776 344.959 430.629 344.995 430.443 345.035C430.261 345.075 430.042 345.098 429.787 345.104C429.33 345.114 428.932 345.045 428.594 344.896C428.259 344.743 428.014 344.509 427.858 344.195C427.706 343.876 427.671 343.479 427.754 343.001L428.987 335.534ZM437.346 341.788L438.087 337.364H439.886L438.614 345H436.869L437.097 343.643H437.018C436.779 344.07 436.438 344.42 435.994 344.692C435.553 344.964 435.046 345.099 434.472 345.099C433.972 345.099 433.549 344.988 433.205 344.766C432.86 344.541 432.615 344.214 432.469 343.787C432.326 343.356 432.305 342.836 432.404 342.226L433.22 337.364H435.019L434.254 341.947C434.177 342.431 434.247 342.816 434.462 343.101C434.681 343.386 435.006 343.528 435.437 343.528C435.702 343.528 435.969 343.464 436.237 343.335C436.509 343.205 436.746 343.013 436.948 342.758C437.15 342.499 437.283 342.176 437.346 341.788ZM442.362 345.154C441.878 345.154 441.457 345.068 441.099 344.896C440.741 344.72 440.478 344.461 440.309 344.12C440.143 343.779 440.102 343.358 440.184 342.857C440.257 342.426 440.396 342.07 440.602 341.788C440.811 341.507 441.066 341.281 441.368 341.112C441.673 340.94 442.004 340.811 442.362 340.724C442.723 340.638 443.091 340.575 443.466 340.536C443.923 340.489 444.293 340.446 444.574 340.406C444.859 340.366 445.073 340.307 445.216 340.227C445.358 340.144 445.444 340.018 445.474 339.849V339.82C445.534 339.445 445.474 339.155 445.295 338.95C445.116 338.744 444.818 338.641 444.4 338.641C443.963 338.641 443.595 338.737 443.297 338.93C442.998 339.122 442.781 339.349 442.645 339.611L441.015 339.372C441.22 338.908 441.502 338.52 441.86 338.209C442.218 337.894 442.63 337.659 443.098 337.503C443.568 337.344 444.07 337.264 444.604 337.264C444.969 337.264 445.325 337.307 445.673 337.393C446.024 337.48 446.334 337.622 446.603 337.821C446.874 338.017 447.073 338.283 447.199 338.621C447.329 338.96 447.35 339.382 447.264 339.889L446.414 345H444.684L444.863 343.951H444.803C444.66 344.163 444.475 344.362 444.246 344.548C444.017 344.73 443.746 344.877 443.431 344.99C443.116 345.099 442.76 345.154 442.362 345.154ZM443.043 343.832C443.404 343.832 443.729 343.76 444.017 343.618C444.306 343.472 444.543 343.28 444.728 343.041C444.914 342.803 445.03 342.542 445.076 342.261L445.226 341.361C445.159 341.407 445.057 341.45 444.917 341.49C444.778 341.53 444.622 341.565 444.45 341.594C444.281 341.624 444.114 341.651 443.948 341.674C443.782 341.697 443.64 341.717 443.52 341.734C443.245 341.77 442.993 341.83 442.765 341.913C442.539 341.996 442.352 342.112 442.203 342.261C442.057 342.406 441.966 342.595 441.929 342.827C441.876 343.156 441.954 343.406 442.163 343.578C442.372 343.747 442.665 343.832 443.043 343.832ZM451.433 334.818L449.743 345H447.943L449.634 334.818H451.433ZM454.804 334.818L453.114 345H451.314L453.004 334.818H454.804ZM455.335 347.864C455.09 347.864 454.867 347.844 454.664 347.804C454.465 347.768 454.308 347.724 454.192 347.675L454.848 346.273C455.097 346.349 455.321 346.382 455.519 346.372C455.722 346.366 455.907 346.298 456.076 346.168C456.249 346.042 456.418 345.835 456.583 345.547L456.812 345.134L455.35 337.364H457.19L457.985 343.141H458.065L460.794 337.364H462.778L458.309 345.915C458.093 346.329 457.843 346.68 457.558 346.969C457.273 347.26 456.946 347.482 456.578 347.635C456.214 347.787 455.8 347.864 455.335 347.864ZM468.209 340.526L467.473 345H465.668L467.359 334.818H469.124L468.487 338.661H468.582C468.824 338.227 469.153 337.886 469.571 337.637C469.992 337.388 470.497 337.264 471.087 337.264C471.611 337.264 472.052 337.375 472.41 337.597C472.768 337.819 473.02 338.144 473.165 338.572C473.315 338.999 473.339 339.521 473.24 340.138L472.425 345H470.62L471.386 340.416C471.468 339.902 471.4 339.503 471.182 339.218C470.966 338.93 470.625 338.786 470.158 338.786C469.836 338.786 469.539 338.855 469.268 338.994C468.996 339.13 468.767 339.327 468.582 339.586C468.399 339.844 468.275 340.158 468.209 340.526ZM476.147 345.154C475.663 345.154 475.242 345.068 474.884 344.896C474.526 344.72 474.263 344.461 474.094 344.12C473.928 343.779 473.886 343.358 473.969 342.857C474.042 342.426 474.181 342.07 474.387 341.788C474.596 341.507 474.851 341.281 475.152 341.112C475.457 340.94 475.789 340.811 476.147 340.724C476.508 340.638 476.876 340.575 477.25 340.536C477.708 340.489 478.077 340.446 478.359 340.406C478.644 340.366 478.858 340.307 479 340.227C479.143 340.144 479.229 340.018 479.259 339.849V339.82C479.319 339.445 479.259 339.155 479.08 338.95C478.901 338.744 478.603 338.641 478.185 338.641C477.748 338.641 477.38 338.737 477.081 338.93C476.783 339.122 476.566 339.349 476.43 339.611L474.799 339.372C475.005 338.908 475.287 338.52 475.645 338.209C476.003 337.894 476.415 337.659 476.883 337.503C477.353 337.344 477.855 337.264 478.389 337.264C478.754 337.264 479.11 337.307 479.458 337.393C479.809 337.48 480.119 337.622 480.388 337.821C480.659 338.017 480.858 338.283 480.984 338.621C481.113 338.96 481.135 339.382 481.049 339.889L480.199 345H478.469L478.647 343.951H478.588C478.445 344.163 478.26 344.362 478.031 344.548C477.802 344.73 477.531 344.877 477.216 344.99C476.901 345.099 476.544 345.154 476.147 345.154ZM476.828 343.832C477.189 343.832 477.514 343.76 477.802 343.618C478.091 343.472 478.328 343.28 478.513 343.041C478.699 342.803 478.815 342.542 478.861 342.261L479.01 341.361C478.944 341.407 478.841 341.45 478.702 341.49C478.563 341.53 478.407 341.565 478.235 341.594C478.066 341.624 477.898 341.651 477.733 341.674C477.567 341.697 477.424 341.717 477.305 341.734C477.03 341.77 476.778 341.83 476.549 341.913C476.324 341.996 476.137 342.112 475.988 342.261C475.842 342.406 475.751 342.595 475.714 342.827C475.661 343.156 475.739 343.406 475.948 343.578C476.157 343.747 476.45 343.832 476.828 343.832ZM481.256 347.864L483.016 337.364H484.786L484.582 338.626H484.686C484.806 338.441 484.966 338.244 485.169 338.035C485.374 337.823 485.634 337.642 485.949 337.493C486.264 337.34 486.647 337.264 487.098 337.264C487.684 337.264 488.19 337.415 488.614 337.717C489.038 338.015 489.341 338.457 489.524 339.044C489.709 339.627 489.733 340.343 489.593 341.192C489.454 342.03 489.197 342.743 488.823 343.33C488.448 343.916 487.999 344.364 487.475 344.672C486.952 344.98 486.39 345.134 485.79 345.134C485.353 345.134 485 345.061 484.731 344.915C484.466 344.77 484.265 344.594 484.13 344.388C483.994 344.18 483.893 343.982 483.826 343.797H483.747L483.071 347.864H481.256ZM484.144 341.182C484.065 341.676 484.063 342.108 484.139 342.479C484.219 342.851 484.376 343.141 484.612 343.349C484.847 343.555 485.155 343.658 485.537 343.658C485.934 343.658 486.282 343.552 486.581 343.339C486.882 343.124 487.132 342.831 487.331 342.46C487.533 342.085 487.676 341.659 487.759 341.182C487.835 340.708 487.835 340.287 487.759 339.919C487.683 339.551 487.528 339.263 487.296 339.054C487.064 338.845 486.75 338.741 486.352 338.741C485.964 338.741 485.618 338.842 485.313 339.044C485.011 339.246 484.761 339.53 484.562 339.894C484.363 340.259 484.224 340.688 484.144 341.182ZM489.74 347.864L491.5 337.364H493.269L493.066 338.626H493.17C493.289 338.441 493.45 338.244 493.652 338.035C493.858 337.823 494.118 337.642 494.433 337.493C494.748 337.34 495.131 337.264 495.581 337.264C496.168 337.264 496.673 337.415 497.098 337.717C497.522 338.015 497.825 338.457 498.007 339.044C498.193 339.627 498.216 340.343 498.077 341.192C497.938 342.03 497.681 342.743 497.306 343.33C496.932 343.916 496.483 344.364 495.959 344.672C495.435 344.98 494.874 345.134 494.274 345.134C493.836 345.134 493.483 345.061 493.215 344.915C492.95 344.77 492.749 344.594 492.613 344.388C492.477 344.18 492.376 343.982 492.31 343.797H492.23L491.554 347.864H489.74ZM492.628 341.182C492.549 341.676 492.547 342.108 492.623 342.479C492.703 342.851 492.86 343.141 493.095 343.349C493.331 343.555 493.639 343.658 494.02 343.658C494.418 343.658 494.766 343.552 495.064 343.339C495.366 343.124 495.616 342.831 495.815 342.46C496.017 342.085 496.16 341.659 496.242 341.182C496.319 340.708 496.319 340.287 496.242 339.919C496.166 339.551 496.012 339.263 495.78 339.054C495.548 338.845 495.233 338.741 494.836 338.741C494.448 338.741 494.101 338.842 493.796 339.044C493.495 339.246 493.245 339.53 493.046 339.894C492.847 340.259 492.708 340.688 492.628 341.182ZM502.056 345.149C501.291 345.149 500.658 344.99 500.157 344.672C499.657 344.35 499.305 343.896 499.103 343.31C498.904 342.72 498.871 342.025 499.004 341.227C499.133 340.441 499.397 339.752 499.794 339.158C500.192 338.562 500.689 338.098 501.286 337.766C501.886 337.432 502.549 337.264 503.274 337.264C503.745 337.264 504.178 337.34 504.572 337.493C504.966 337.642 505.3 337.874 505.571 338.189C505.843 338.504 506.03 338.905 506.133 339.392C506.236 339.876 506.231 340.453 506.118 341.122L506.034 341.674H499.769L499.963 340.461H504.497C504.557 340.116 504.537 339.81 504.438 339.541C504.338 339.269 504.173 339.056 503.941 338.9C503.709 338.744 503.419 338.666 503.071 338.666C502.716 338.666 502.385 338.757 502.076 338.94C501.771 339.119 501.515 339.351 501.306 339.636C501.097 339.921 500.964 340.221 500.908 340.536L500.704 341.699C500.631 342.176 500.648 342.566 500.754 342.867C500.86 343.169 501.046 343.391 501.311 343.533C501.576 343.676 501.911 343.747 502.315 343.747C502.58 343.747 502.825 343.711 503.051 343.638C503.276 343.565 503.477 343.455 503.652 343.31C503.831 343.161 503.98 342.978 504.1 342.763L505.745 342.952C505.563 343.396 505.296 343.784 504.945 344.115C504.594 344.443 504.173 344.698 503.682 344.881C503.195 345.06 502.653 345.149 502.056 345.149ZM509.274 340.526L508.538 345H506.733L508.006 337.364H509.731L509.512 338.661H509.607C509.845 338.234 510.18 337.894 510.611 337.642C511.042 337.39 511.544 337.264 512.117 337.264C512.638 337.264 513.075 337.377 513.43 337.602C513.784 337.824 514.036 338.151 514.185 338.582C514.335 339.009 514.358 339.528 514.255 340.138L513.44 345H511.64L512.401 340.416C512.487 339.909 512.422 339.511 512.207 339.223C511.995 338.931 511.653 338.786 511.183 338.786C510.868 338.786 510.578 338.855 510.313 338.994C510.047 339.13 509.824 339.327 509.641 339.586C509.462 339.844 509.34 340.158 509.274 340.526ZM518.34 345.149C517.575 345.149 516.941 344.99 516.441 344.672C515.941 344.35 515.589 343.896 515.387 343.31C515.188 342.72 515.155 342.025 515.288 341.227C515.417 340.441 515.68 339.752 516.078 339.158C516.476 338.562 516.973 338.098 517.57 337.766C518.169 337.432 518.832 337.264 519.558 337.264C520.029 337.264 520.461 337.34 520.856 337.493C521.25 337.642 521.583 337.874 521.855 338.189C522.127 338.504 522.314 338.905 522.417 339.392C522.52 339.876 522.515 340.453 522.402 341.122L522.317 341.674H516.053L516.247 340.461H520.781C520.841 340.116 520.821 339.81 520.722 339.541C520.622 339.269 520.456 339.056 520.224 338.9C519.992 338.744 519.702 338.666 519.354 338.666C519 338.666 518.668 338.757 518.36 338.94C518.055 339.119 517.798 339.351 517.589 339.636C517.381 339.921 517.248 340.221 517.192 340.536L516.988 341.699C516.915 342.176 516.932 342.566 517.038 342.867C517.144 343.169 517.329 343.391 517.594 343.533C517.86 343.676 518.194 343.747 518.599 343.747C518.864 343.747 519.109 343.711 519.334 343.638C519.56 343.565 519.76 343.455 519.936 343.31C520.115 343.161 520.264 342.978 520.383 342.763L522.029 342.952C521.847 343.396 521.58 343.784 521.229 344.115C520.877 344.443 520.456 344.698 519.966 344.881C519.479 345.06 518.937 345.149 518.34 345.149ZM525.836 345.134C525.236 345.134 524.724 344.98 524.3 344.672C523.875 344.364 523.574 343.916 523.395 343.33C523.219 342.743 523.199 342.03 523.335 341.192C523.478 340.343 523.738 339.627 524.116 339.044C524.493 338.457 524.944 338.015 525.468 337.717C525.995 337.415 526.552 337.264 527.138 337.264C527.589 337.264 527.945 337.34 528.207 337.493C528.472 337.642 528.671 337.823 528.804 338.035C528.936 338.244 529.034 338.441 529.097 338.626H529.172L529.803 334.818H531.608L529.917 345H528.148L528.351 343.797H528.242C528.116 343.982 527.949 344.18 527.74 344.388C527.531 344.594 527.271 344.77 526.959 344.915C526.648 345.061 526.273 345.134 525.836 345.134ZM526.552 343.658C526.936 343.658 527.281 343.555 527.586 343.349C527.894 343.141 528.151 342.851 528.356 342.479C528.562 342.108 528.706 341.676 528.789 341.182C528.872 340.688 528.872 340.259 528.789 339.894C528.706 339.53 528.545 339.246 528.307 339.044C528.068 338.842 527.755 338.741 527.367 338.741C526.969 338.741 526.62 338.845 526.318 339.054C526.02 339.263 525.774 339.551 525.582 339.919C525.39 340.287 525.254 340.708 525.175 341.182C525.095 341.659 525.09 342.085 525.16 342.46C525.233 342.831 525.383 343.124 525.612 343.339C525.844 343.552 526.157 343.658 526.552 343.658Z" fill="black"/>
</g>
<defs>
<filter id="filter0_d_2383_26448" x="0" y="0" width="567" height="376" filterUnits="userSpaceOnUse" color-interpolation-filters="sRGB">
<feFlood flood-opacity="0" result="BackgroundImageFix"/>
<feColorMatrix in="SourceAlpha" type="matrix" values="0 0 0 0 0 0 0 0 0 0 0 0 0 0 0 0 0 0 127 0" result="hardAlpha"/>
<feOffset dy="4"/>
<feGaussianBlur stdDeviation="2"/>
<feComposite in2="hardAlpha" operator="out"/>
<feColorMatrix type="matrix" values="0 0 0 0 0 0 0 0 0 0 0 0 0 0 0 0 0 0 0.19 0"/>
<feBlend mode="normal" in2="BackgroundImageFix" result="effect1_dropShadow_2383_26448"/>
<feBlend mode="normal" in="SourceGraphic" in2="effect1_dropShadow_2383_26448" result="shape"/>
</filter>
</defs>
</svg>
